<svg width="55" height="56" viewBox="0 0 55 56" fill="none" xmlns="http://www.w3.org/2000/svg">
<path d="M31.626 14.0059C41.4372 14.2545 49.3145 22.2861 49.3145 32.1572L49.3086 32.626C49.1984 36.9732 47.5583 40.9389 44.9092 44.0098L53.7783 52.8789L51.6572 55L42.7705 46.1133C39.6225 48.7357 35.5746 50.3144 31.1572 50.3145L30.6885 50.3086C21.033 50.064 13.2506 42.2815 13.0059 32.626L13 32.1572C13 22.1293 21.1293 14 31.1572 14L31.626 14.0059ZM31.1572 18C23.3385 18 17 24.3385 17 32.1572C17 39.976 23.3385 46.3145 31.1572 46.3145C38.9759 46.3144 45.3144 39.9759 45.3145 32.1572C45.3145 24.3385 38.976 18 31.1572 18ZM9.61719 4.26562L3.53809 6.70508V6.82324L9.61719 9.26465V11.8525L0.617188 7.88965V5.63965L9.61719 1.67676V4.26562ZM26.0176 5.63965V7.88965L17.0176 11.8525V9.26465L23.0967 6.82324V6.70508L17.0176 4.26562V1.67676L26.0176 5.63965Z" fill="black"/>
<path d="M31.626 14.0059L31.6386 13.506L31.6322 13.5059L31.626 14.0059ZM49.3145 32.1572L49.8145 32.1635V32.1572H49.3145ZM49.3086 32.626L49.8085 32.6386L49.8086 32.6322L49.3086 32.626ZM44.9092 44.0098L44.5306 43.6832L44.2272 44.0349L44.5556 44.3633L44.9092 44.0098ZM53.7783 52.8789L54.1319 53.2325L54.4854 52.8789L54.1319 52.5254L53.7783 52.8789ZM51.6572 55L51.3037 55.3536L51.6572 55.7071L52.0108 55.3536L51.6572 55ZM42.7705 46.1133L43.1241 45.7597L42.8012 45.4369L42.4505 45.7291L42.7705 46.1133ZM31.1572 50.3145L31.151 50.8145L31.1572 50.8145L31.1572 50.3145ZM30.6885 50.3086L30.6758 50.8085L30.6822 50.8086L30.6885 50.3086ZM13.0059 32.626L12.5059 32.6322L12.506 32.6386L13.0059 32.626ZM13 32.1572L12.5 32.1572L12.5 32.1635L13 32.1572ZM31.1572 14L31.1635 13.5H31.1572V14ZM31.1572 18L31.1572 17.5H31.1572V18ZM17 32.1572L16.5 32.1572L16.5 32.1572L17 32.1572ZM31.1572 46.3145L31.1572 46.8145L31.1572 46.8145L31.1572 46.3145ZM45.3145 32.1572L45.8145 32.1572V32.1572H45.3145ZM9.61719 4.26562L9.8034 4.72966L10.1172 4.60374V4.26562H9.61719ZM3.53809 6.70508L3.35188 6.24105L3.03809 6.36697V6.70508H3.53809ZM3.53809 6.82324H3.03809V7.16125L3.35175 7.28722L3.53809 6.82324ZM9.61719 9.26465H10.1172V8.92664L9.80353 8.80067L9.61719 9.26465ZM9.61719 11.8525L9.4157 12.3101L10.1172 12.619V11.8525H9.61719ZM0.617188 7.88965H0.117188V8.21581L0.415695 8.34725L0.617188 7.88965ZM0.617188 5.63965L0.415695 5.18205L0.117188 5.31348V5.63965H0.617188ZM9.61719 1.67676H10.1172V0.910273L9.4157 1.21915L9.61719 1.67676ZM26.0176 5.63965H26.5176V5.31348L26.2191 5.18205L26.0176 5.63965ZM26.0176 7.88965L26.2191 8.34725L26.5176 8.21581V7.88965H26.0176ZM17.0176 11.8525H16.5176V12.619L17.2191 12.3101L17.0176 11.8525ZM17.0176 9.26465L16.8312 8.80067L16.5176 8.92664V9.26465H17.0176ZM23.0967 6.82324L23.283 7.28722L23.5967 7.16125V6.82324H23.0967ZM23.0967 6.70508H23.5967V6.36697L23.2829 6.24105L23.0967 6.70508ZM17.0176 4.26562H16.5176V4.60374L16.8314 4.72966L17.0176 4.26562ZM17.0176 1.67676L17.2191 1.21915L16.5176 0.910273V1.67676H17.0176ZM31.626 14.0059L31.6133 14.5057C41.1541 14.7475 48.8145 22.558 48.8145 32.1572H49.3145H49.8145C49.8145 22.0142 41.7203 13.7615 31.6386 13.506L31.626 14.0059ZM49.3145 32.1572L48.8145 32.151L48.8086 32.6197L49.3086 32.626L49.8086 32.6322L49.8144 32.1635L49.3145 32.1572ZM49.3086 32.626L48.8088 32.6133C48.7016 36.8406 47.1072 40.6964 44.5306 43.6832L44.9092 44.0098L45.2878 44.3364C48.0094 41.1814 49.6952 37.1057 49.8084 32.6386L49.3086 32.626ZM44.9092 44.0098L44.5556 44.3633L53.4248 53.2325L53.7783 52.8789L54.1319 52.5254L45.2627 43.6562L44.9092 44.0098ZM53.7783 52.8789L53.4248 52.5254L51.3037 54.6464L51.6572 55L52.0108 55.3536L54.1319 53.2325L53.7783 52.8789ZM51.6572 55L52.0108 54.6464L43.1241 45.7597L42.7705 46.1133L42.417 46.4668L51.3037 55.3536L51.6572 55ZM42.7705 46.1133L42.4505 45.7291C39.3889 48.2795 35.4533 49.8144 31.1572 49.8145L31.1572 50.3145L31.1572 50.8145C35.6959 50.8144 39.8562 49.1918 43.0905 46.4974L42.7705 46.1133ZM31.1572 50.3145L31.1635 49.8145L30.6947 49.8086L30.6885 50.3086L30.6822 50.8086L31.151 50.8144L31.1572 50.3145ZM30.6885 50.3086L30.7011 49.8088C21.3118 49.5709 13.7437 42.0026 13.5057 32.6133L13.0059 32.626L12.506 32.6386C12.7575 42.5603 20.7541 50.5571 30.6758 50.8084L30.6885 50.3086ZM13.0059 32.626L13.5058 32.6197L13.5 32.151L13 32.1572L12.5 32.1635L12.5059 32.6322L13.0059 32.626ZM13 32.1572H13.5C13.5 22.4055 21.4055 14.5 31.1572 14.5V14V13.5C20.8532 13.5 12.5 21.8532 12.5 32.1572H13ZM31.1572 14L31.151 14.5L31.6197 14.5058L31.626 14.0059L31.6322 13.5059L31.1635 13.5L31.1572 14ZM31.1572 18V17.5C23.0623 17.5 16.5 24.0623 16.5 32.1572H17H17.5C17.5 24.6146 23.6146 18.5 31.1572 18.5V18ZM17 32.1572L16.5 32.1572C16.5 40.2521 23.0623 46.8145 31.1572 46.8145V46.3145V45.8145C23.6146 45.8145 17.5 39.6998 17.5 32.1572L17 32.1572ZM31.1572 46.3145L31.1572 46.8145C39.2521 46.8144 45.8144 40.2521 45.8145 32.1572L45.3145 32.1572L44.8145 32.1572C44.8144 39.6998 38.6998 45.8144 31.1572 45.8145L31.1572 46.3145ZM45.3145 32.1572H45.8145C45.8145 24.0623 39.2521 17.5 31.1572 17.5L31.1572 18L31.1572 18.5C38.6998 18.5 44.8145 24.6146 44.8145 32.1572H45.3145ZM9.61719 4.26562L9.43098 3.80159L3.35188 6.24105L3.53809 6.70508L3.7243 7.16911L9.8034 4.72966L9.61719 4.26562ZM3.53809 6.70508H3.03809V6.82324H3.53809H4.03809V6.70508H3.53809ZM3.53809 6.82324L3.35175 7.28722L9.43085 9.72863L9.61719 9.26465L9.80353 8.80067L3.72442 6.35926L3.53809 6.82324ZM9.61719 9.26465H9.11719V11.8525H9.61719H10.1172V9.26465H9.61719ZM9.61719 11.8525L9.81868 11.3949L0.81868 7.43205L0.617188 7.88965L0.415695 8.34725L9.4157 12.3101L9.61719 11.8525ZM0.617188 7.88965H1.11719V5.63965H0.617188H0.117188V7.88965H0.617188ZM0.617188 5.63965L0.81868 6.09725L9.81868 2.13436L9.61719 1.67676L9.4157 1.21915L0.415695 5.18205L0.617188 5.63965ZM9.61719 1.67676H9.11719V4.26562H9.61719H10.1172V1.67676H9.61719ZM26.0176 5.63965H25.5176V7.88965H26.0176H26.5176V5.63965H26.0176ZM26.0176 7.88965L25.8161 7.43205L16.8161 11.3949L17.0176 11.8525L17.2191 12.3101L26.2191 8.34725L26.0176 7.88965ZM17.0176 11.8525H17.5176V9.26465H17.0176H16.5176V11.8525H17.0176ZM17.0176 9.26465L17.2039 9.72863L23.283 7.28722L23.0967 6.82324L22.9103 6.35926L16.8312 8.80067L17.0176 9.26465ZM23.0967 6.82324H23.5967V6.70508H23.0967H22.5967V6.82324H23.0967ZM23.0967 6.70508L23.2829 6.24105L17.2038 3.80159L17.0176 4.26562L16.8314 4.72966L22.9105 7.16911L23.0967 6.70508ZM17.0176 4.26562H17.5176V1.67676H17.0176H16.5176V4.26562H17.0176ZM17.0176 1.67676L16.8161 2.13436L25.8161 6.09725L26.0176 5.63965L26.2191 5.18205L17.2191 1.21915L17.0176 1.67676Z" fill="black"/>
</svg>
